<svg width="1299" height="1068" xmlns="http://www.w3.org/2000/svg" xmlns:xlink="http://www.w3.org/1999/xlink" xml:space="preserve" overflow="hidden"><defs><clipPath id="clip0"><rect x="681" y="430" width="1299" height="1068"/></clipPath></defs><g clip-path="url(#clip0)" transform="translate(-681 -430)"><path d="M681 446.167C681 437.238 688.238 430 697.166 430L1963.83 430C1972.76 430 1980 437.238 1980 446.167L1980 510.833C1980 519.762 1972.76 527 1963.83 527L697.166 527C688.238 527 681 519.762 681 510.833Z" fill="#262B51" fill-rule="evenodd"/><path d="M1433.83 491C1442.76 491 1450 498.238 1450 507.167L1450 1481.83C1450 1490.76 1442.76 1498 1433.83 1498L1369.17 1498C1360.24 1498 1353 1490.76 1353 1481.83L1353 507.167C1353 498.238 1360.24 491 1369.17 491Z" fill="#262B51" fill-rule="evenodd"/></g></svg>