<svg width="1299" height="924" xmlns="http://www.w3.org/2000/svg" xmlns:xlink="http://www.w3.org/1999/xlink" xml:space="preserve" overflow="hidden"><defs><clipPath id="clip0"><rect x="680" y="574" width="1299" height="924"/></clipPath></defs><g clip-path="url(#clip0)" transform="translate(-680 -574)"><path d="M680 590.167C680 581.238 687.238 574 696.166 574L1962.83 574C1971.76 574 1979 581.238 1979 590.167L1979 654.833C1979 663.762 1971.76 671 1962.83 671L696.166 671C687.238 671 680 663.762 680 654.833Z" fill="#03989E" fill-rule="evenodd"/><path d="M1289.67 629C1298.69 629 1306 636.313 1306 645.334L1306 1481.67C1306 1490.69 1298.69 1498 1289.67 1498L1224.33 1498C1215.31 1498 1208 1490.69 1208 1481.67L1208 645.334C1208 636.313 1215.31 629 1224.33 629Z" fill="#03989E" fill-rule="evenodd"/><path d="M680 1416.33C680 1407.31 687.313 1400 696.334 1400L1248.67 1400C1257.69 1400 1265 1407.31 1265 1416.33L1265 1481.67C1265 1490.69 1257.69 1498 1248.67 1498L696.334 1498C687.313 1498 680 1490.69 680 1481.67Z" fill="#03989E" fill-rule="evenodd"/></g></svg>